<?xml version="1.0" encoding="utf-8"?>
<!-- Generator: Adobe Illustrator 23.0.1, SVG Export Plug-In . SVG Version: 6.00 Build 0)  -->
<svg version="1.1" id="Layer_1" xmlns="http://www.w3.org/2000/svg" xmlns:xlink="http://www.w3.org/1999/xlink" x="0px" y="0px"
	 viewBox="0 0 64 64" style="enable-background:new 0 0 64 64;" xml:space="preserve">
<style type="text/css">
	.st0{fill:#231F20;}
</style>
<g id="XMLID_113_">
	<path id="XMLID_246_" class="st0" d="M34,36.61v-6.14h6v-4H24v4h6v6.14c-7.89,0.99-14,7.7-14,15.86V64h32V52.47
		C48,44.31,41.89,37.6,34,36.61z M44,60H20v-7.53c0-6.62,5.38-12,12-12s12,5.38,12,12V60z"/>
	<path id="XMLID_254_" class="st0" d="M32,22.47c2.42,0,4.63-1.23,5.91-3.29s1.39-4.59,0.3-6.76L32,0l-6.21,12.42
		c-1.08,2.17-0.97,4.69,0.3,6.76C27.37,21.24,29.58,22.47,32,22.47z M29.37,14.21L32,8.94l2.63,5.27c0.47,0.93,0.42,1.98-0.13,2.86
		c-0.55,0.89-1.46,1.4-2.5,1.4s-1.96-0.51-2.5-1.4C28.95,16.19,28.9,15.14,29.37,14.21z"/>
</g>
</svg>
