<?xml version="1.0" encoding="iso-8859-1"?>
<!-- Generator: Adobe Illustrator 19.0.0, SVG Export Plug-In . SVG Version: 6.00 Build 0)  -->
<svg version="1.1" id="Capa_1" xmlns="http://www.w3.org/2000/svg" xmlns:xlink="http://www.w3.org/1999/xlink" x="0px" y="0px"
	 viewBox="0 0 512 512" style="enable-background:new 0 0 512 512;" xml:space="preserve">
<g>
	<g>
		<path d="M209.5,326c-5.52,0-10,4.48-10,10c0,5.52,4.48,10,10,10s10-4.48,10-10C219.5,330.48,215.02,326,209.5,326z"/>
	</g>
</g>
<g>
	<g>
		<path d="M482,0H262c-16.542,0-30,13.458-30,30v76H30c-16.542,0-30,13.458-30,30v220c0,16.542,13.458,30,30,30h202v96
			c0,16.542,13.458,30,30,30h220c16.542,0,30-13.458,30-30V30C512,13.458,498.542,0,482,0z M20,136c0-5.514,4.486-10,10-10h320
			c5.514,0,10,4.486,10,10v30H20V136z M20,186h340v40H20V186z M30,366c-5.514,0-10-4.486-10-10V246h340v110c0,5.514-4.486,10-10,10
			H30z M492,482c0,5.514-4.486,10-10,10H262c-5.514,0-10-4.486-10-10v-50h240V482z M492,412H252v-26h98c16.542,0,30-13.458,30-30
			V136c0-16.542-13.458-30-30-30h-98V80h240V412z M492,60H252V30c0-5.514,4.486-10,10-10h220c5.514,0,10,4.486,10,10V60z"/>
	</g>
</g>
<g>
	<g>
		<path d="M382,452h-20c-5.522,0-10,4.478-10,10c0,5.522,4.478,10,10,10h20c5.522,0,10-4.478,10-10C392,456.478,387.522,452,382,452
			z"/>
	</g>
</g>
<g>
	<g>
		<path d="M330,286h-40c-5.522,0-10,4.478-10,10c0,5.522,4.478,10,10,10h40c5.522,0,10-4.478,10-10C340,290.478,335.522,286,330,286
			z"/>
	</g>
</g>
<g>
	<g>
		<path d="M250,286h-40c-5.522,0-10,4.478-10,10c0,5.522,4.478,10,10,10h40c5.522,0,10-4.478,10-10C260,290.478,255.522,286,250,286
			z"/>
	</g>
</g>
<g>
	<g>
		<path d="M170,286h-40c-5.522,0-10,4.478-10,10c0,5.522,4.478,10,10,10h40c5.522,0,10-4.478,10-10C180,290.478,175.522,286,170,286
			z"/>
	</g>
</g>
<g>
	<g>
		<path d="M90,286H50c-5.522,0-10,4.478-10,10c0,5.522,4.478,10,10,10h40c5.522,0,10-4.478,10-10C100,290.478,95.522,286,90,286z"/>
	</g>
</g>
<g>
	<g>
		<path d="M330,326h-80c-5.522,0-10,4.478-10,10c0,5.522,4.478,10,10,10h80c5.522,0,10-4.478,10-10C340,330.478,335.522,326,330,326
			z"/>
	</g>
</g>
<g>
</g>
<g>
</g>
<g>
</g>
<g>
</g>
<g>
</g>
<g>
</g>
<g>
</g>
<g>
</g>
<g>
</g>
<g>
</g>
<g>
</g>
<g>
</g>
<g>
</g>
<g>
</g>
<g>
</g>
</svg>
